<?xml version="1.0" standalone="no"?>
<!DOCTYPE svg PUBLIC "-//W3C//DTD SVG 20010904//EN"
 "http://www.w3.org/TR/2001/REC-SVG-20010904/DTD/svg10.dtd">
<svg version="1.0" xmlns="http://www.w3.org/2000/svg"
 width="2026.000000pt" height="2026.000000pt" viewBox="0 0 2026.000000 2026.000000"
 preserveAspectRatio="xMidYMid meet">
<metadata>
Created by potrace 1.11, written by Peter Selinger 2001-2013
</metadata>
<g transform="translate(0.000000,2026.000000) scale(0.100000,-0.100000)"
fill="#000000" stroke="none">
<path d="M14974 20252 l-31 -3 0 -6517 0 -6517 37 -65 c20 -36 57 -101 80
-145 24 -44 73 -134 110 -200 79 -142 101 -181 213 -385 46 -85 93 -171 104
-190 11 -19 48 -87 83 -150 34 -63 95 -173 135 -245 40 -71 86 -155 102 -185
17 -30 67 -122 113 -205 45 -82 95 -172 110 -200 113 -205 315 -572 375 -680
40 -71 87 -157 105 -190 33 -60 44 -80 126 -229 24 -43 44 -80 44 -82 0 -3 10
-21 23 -42 13 -20 43 -72 66 -116 23 -43 76 -140 118 -215 102 -183 124 -224
168 -306 21 -38 57 -104 80 -145 49 -88 88 -158 140 -255 21 -38 41 -74 45
-80 4 -5 27 -46 50 -90 24 -44 51 -94 61 -112 10 -18 34 -61 53 -96 19 -35 46
-83 60 -108 l26 -44 0 8898 c0 8466 -1 8897 -17 8898 -68 2 -2555 3 -2579 1z"/>
<path d="M4389 20165 c0 -39 0 -10232 0 -10265 l1 -25 1323 0 1322 0 5 2625
c5 2574 5 2624 24 2591 10 -19 26 -49 36 -65 9 -17 50 -89 90 -161 40 -71 95
-170 123 -220 28 -49 59 -106 69 -125 11 -19 25 -44 31 -55 7 -11 41 -72 76
-135 36 -63 73 -131 84 -150 45 -79 212 -378 235 -420 14 -25 76 -135 137
-245 62 -110 123 -220 137 -245 76 -137 149 -267 158 -280 6 -8 13 -22 17 -30
4 -8 40 -73 80 -144 40 -71 73 -130 73 -132 0 -1 24 -44 54 -96 29 -51 66
-115 81 -143 15 -27 82 -147 148 -265 66 -118 140 -251 165 -295 24 -44 55
-99 68 -122 13 -24 36 -64 50 -90 15 -27 44 -77 64 -113 20 -36 49 -86 64
-112 43 -80 68 -124 356 -638 152 -272 294 -526 315 -565 21 -38 41 -74 45
-80 4 -5 53 -91 108 -190 55 -99 112 -202 128 -230 202 -359 202 -360 182
-365 -11 -3 -1715 -5 -3789 -4 l-3769 1 0 -1281 0 -1281 4508 0 4507 0 24 -40
c12 -22 35 -62 50 -90 29 -53 48 -87 143 -253 32 -57 58 -106 58 -108 0 -2 10
-21 23 -42 13 -20 40 -66 59 -102 19 -36 96 -173 170 -305 74 -132 150 -267
168 -300 18 -33 83 -148 143 -255 61 -107 121 -214 133 -237 12 -23 51 -92 87
-155 67 -119 95 -168 188 -338 32 -58 63 -110 69 -117 5 -7 10 -15 10 -18 0
-3 32 -62 72 -133 39 -70 82 -147 96 -172 14 -25 65 -116 114 -203 49 -87 102
-182 118 -210 15 -29 64 -117 109 -196 45 -79 81 -146 81 -148 0 -2 11 -20 23
-41 20 -31 117 -204 302 -536 15 -28 41 -73 58 -100 16 -28 34 -60 39 -71 5
-11 14 -29 21 -40 7 -11 32 -56 56 -100 24 -44 53 -96 64 -115 85 -150 154
-274 180 -320 16 -30 38 -68 47 -85 19 -33 30 -53 160 -285 48 -85 97 -173
109 -195 13 -22 36 -63 51 -90 l29 -50 1413 0 1413 0 3 164 3 163 -32 57 c-54
95 -205 365 -334 596 -68 121 -172 308 -232 415 -61 107 -123 218 -138 245
-15 28 -48 86 -73 130 -25 44 -59 105 -75 135 -17 30 -39 69 -49 85 -10 17
-21 37 -25 45 -3 8 -52 96 -108 195 -56 99 -127 225 -157 280 -66 119 -104
188 -131 235 -11 19 -30 53 -42 75 -57 102 -96 171 -105 185 -6 8 -13 22 -17
30 -3 8 -34 65 -69 125 -34 61 -74 133 -89 160 -15 28 -45 79 -65 115 -21 36
-52 92 -70 125 -39 71 -76 137 -103 185 -11 19 -61 110 -112 201 -187 334
-215 384 -225 399 -5 8 -18 32 -30 53 -11 21 -52 94 -90 163 -39 69 -70 127
-70 130 0 3 -8 17 -19 32 -10 15 -87 151 -172 302 -158 286 -175 315 -210 377
-31 54 -150 267 -189 338 -18 33 -93 166 -165 295 -73 129 -147 262 -165 295
-18 33 -42 76 -53 95 -50 88 -144 256 -151 270 -4 8 -12 24 -19 35 -7 11 -30
52 -51 90 -22 39 -48 86 -59 105 -11 19 -31 55 -45 80 -14 25 -53 95 -87 155
-34 61 -77 137 -95 170 -18 33 -42 76 -53 95 -139 248 -250 445 -274 490 -17
30 -65 115 -107 189 -42 73 -76 135 -76 137 0 2 -13 25 -28 51 -16 26 -48 84
-72 128 -23 44 -49 87 -56 96 -8 8 -14 18 -14 21 0 3 -32 64 -71 134 -40 71
-85 154 -102 184 -16 30 -33 60 -37 65 -4 6 -22 37 -40 70 -18 33 -73 131
-121 217 -49 87 -89 161 -89 165 0 3 -6 14 -14 22 -7 9 -29 45 -48 81 -34 62
-208 373 -408 730 -81 145 -178 318 -265 475 -15 28 -66 118 -113 200 -47 83
-97 173 -112 200 -15 28 -58 104 -95 170 -37 66 -81 145 -98 175 -16 30 -38
69 -47 85 -10 17 -29 50 -42 75 -14 25 -67 119 -118 210 -51 91 -104 185 -118
210 -13 25 -40 71 -58 103 -19 32 -34 60 -34 63 0 2 -11 21 -23 42 -13 20 -42
71 -64 112 -22 41 -90 163 -150 270 -61 107 -125 222 -143 255 -18 33 -44 77
-57 97 -12 21 -23 40 -23 42 0 3 -13 27 -28 53 -16 26 -44 77 -64 113 -20 36
-66 119 -103 185 -37 66 -82 146 -99 177 -17 31 -70 126 -117 210 -48 84 -99
176 -114 203 -16 28 -57 102 -93 165 -35 63 -87 156 -114 205 -28 50 -101 180
-163 290 -62 110 -123 220 -137 245 -14 25 -58 104 -98 175 -40 72 -84 149
-97 173 -12 23 -35 63 -50 90 -14 26 -45 81 -68 122 -23 41 -83 147 -132 235
-49 88 -105 187 -123 220 -35 64 -105 190 -120 215 -10 17 -229 409 -268 480
-14 25 -36 62 -49 82 -12 21 -23 40 -23 42 0 2 -22 43 -50 91 -27 48 -50 88
-50 90 0 1 -34 63 -76 136 -42 74 -80 143 -85 154 -5 11 -19 36 -31 55 -11 19
-34 60 -51 90 -16 30 -33 60 -37 65 -4 6 -22 37 -40 70 -31 57 -105 188 -380
680 -64 116 -130 233 -145 260 -15 28 -52 92 -81 143 -30 52 -54 95 -54 97 0
2 -22 42 -50 90 -27 48 -50 90 -50 93 0 4 -7 16 -16 27 -15 20 -27 20 -1429
20 l-1415 0 -1 -30z"/>
<path d="M4389 6211 c-3 -649 0 -6193 4 -6197 2 -3 47 17 98 44 52 27 211 109
354 182 261 133 475 243 810 415 99 51 275 141 390 200 116 59 278 142 360
185 83 42 259 133 393 201 l242 124 -2 2475 -3 2475 -1322 1 -1323 1 -1 -106z"/>
</g>
</svg>
